<svg xmlns="http://www.w3.org/2000/svg" version="1.1" xmlns:xlink="http://www.w3.org/1999/xlink" viewBox="0 0 7.645753686729753 7.172626491527279"><g transform="matrix(0.8531232515765992,0,0,0.8531232515765992,1.0882377487420838,5.416807382961174)"><rect width="8.880618701584506" height="8.880618701584506" x="-1.2348650148547526" y="-6.585947901628517" fill="#ffffff"></rect><g transform="matrix(1,0,0,1,0,0)" clip-path="url(#SvgjsClipPath2138)"><g clip-path="url(#SvgjsClipPath2133646d5b19-b6d7-4973-9ec2-1f1692182517)"><path d=" M 5.978427782129922 -3.5553200015092594 C 5.9767922734504495 -3.5891492073530586 5.974984605962614 -3.723433077878065 5.867084072819605 -3.723433077878065 C 5.73955743552294 -3.723433077878065 5.743043651392339 -3.577098090767481 5.741967658840055 -3.532422879996662 C 5.737663688630921 -3.357036093974418 5.698325400919428 -3.006606839546661 5.675170041194283 -2.977598080337093 C 5.668197609455486 -2.968990139918823 5.663118924608705 -3.012718477243633 5.662602448183609 -3.031182509440822 C 5.6598479072497625 -3.1258698540417873 5.66070870129159 -3.2205571986427537 5.6535210710423325 -3.3148571859248976 C 5.648227187685098 -3.3847106224191554 5.6040684533393765 -3.4261578555331225 5.54652437164324 -3.4293858331899743 C 5.488980289947108 -3.432613810846825 5.445165873218116 -3.396804778706824 5.428853826125497 -3.326090548170739 C 5.419944607792585 -3.2873548162885258 5.417663503581746 -3.2468544566205666 5.414693764137443 -3.2069566527818867 C 5.402986965168598 -3.049732621042193 5.396531009854893 -2.8919490731753097 5.3798746451455415 -2.735241517860712 C 5.360937176225347 -2.556798912989983 5.3044260473794065 -2.388728876323268 5.219035278430173 -2.2302997329250167 C 5.130631730334544 -2.0662897748222524 5.004468016937439 -1.940699924119699 4.84054413823886 -1.8535301808173559 C 4.76014597473222 -1.810920875746921 4.676304635058274 -1.7748105656922801 4.576882923227259 -1.72755297279598 C 4.58428575198697 -1.766288704678193 4.5854908636455285 -1.7874211984050454 4.592334176278053 -1.8065308261336037 C 4.64906050363445 -1.9665093988071445 4.724552141102675 -2.1175787531477757 4.809383393924721 -2.2644302166834565 C 4.839511185388664 -2.316077859193073 4.868347785789867 -2.370566122040721 4.8854775872222245 -2.4274646082054834 C 4.926408343911097 -2.5632548683036864 4.843815155597801 -2.6834217165427305 4.713620056771472 -2.6830773989259997 C 4.641055119045459 -2.6830773989259997 4.577743717269087 -2.6544129573331614 4.5343596975610065 -2.595749843382655 C 4.50259337632699 -2.551634320989393 4.474891570602052 -2.504729963506084 4.451594350439347 -2.4556125733732244 C 4.410147117325375 -2.370652201444904 4.374122886674918 -2.28302336798692 4.333493407900685 -2.1976756387397764 C 4.2656628374047205 -2.055257264519506 4.166628482892528 -1.9376727984059423 4.042932379081994 -1.8404461113815866 C 3.977598111307327 -1.7887984688719687 3.9122638435326604 -1.7374521042769908 3.847661250693547 -1.6851158265339117 C 3.6191634722905786 -1.5000451075411156 3.5055386587694217 -1.2611317212320419 3.5049361029401425 -0.9660945633958509 C 3.5045487456213187 -0.7576102464653607 3.5359246884459123 -0.7969054944747613 3.3486589446464574 -0.6684750234341781 C 3.2701114883297464 -0.6145893164158096 3.2389507440156113 -0.5888085348630927 3.205465855788542 -0.5887654951610024 C 3.1719809675614727 -0.5887224554589103 3.1409063026515196 -0.6145893164158096 3.062229727228536 -0.6684750234341781 C 2.8749639834290797 -0.7969054944747604 2.9063829659557645 -0.7576102464653607 2.905952568934851 -0.9660945633958509 C 2.9053930528076632 -1.2611317212320419 2.7917682392865046 -1.5000020678390236 2.5632704608835373 -1.6851158265339117 C 2.498710907746515 -1.7374521042769917 2.433333600269757 -1.7890136673824264 2.3679562927929982 -1.8404461113815866 C 2.244260188982464 -1.9378019175122163 2.1452688741723644 -2.05538638362578 2.0773952639743083 -2.1976756387397764 C 2.0367227454979844 -2.283023367986919 2.000784594251709 -2.370652201444904 1.9592943214356489 -2.4556125733732252 C 1.9360129209754975 -2.5047294604903865 1.908325442441559 -2.551633950660262 1.876572014016077 -2.595749843382655 C 1.833187994307999 -2.6544129573331623 1.7698335528295341 -2.682862200415543 1.697311654805612 -2.6830773989259997 C 1.5670735162771934 -2.6834217165427305 1.4845233676659875 -2.5632548683036873 1.5254110846527682 -2.4274646082054834 C 1.5426269654893074 -2.370566122040721 1.5715926849967847 -2.31625001800144 1.6015483176523628 -2.2644302166834565 C 1.6863795704744102 -2.117578753147777 1.7618712079426344 -1.9665093988071445 1.81855449559694 -1.8065308261336037 C 1.825354768527373 -1.787421198405044 1.8266459595901137 -1.7663317443802842 1.8340057486477341 -1.72755297279598 C 1.7345840368167205 -1.7748966450964634 1.650742697142774 -1.810920875746921 1.5703875733382269 -1.8535301808173559 C 1.4064923877743738 -1.9404703790418796 1.2803286743772682 -2.066060229744432 1.191896433146911 -2.2302997329250167 C 1.1064626244955862 -2.388728876323268 1.0498654162454626 -2.556798912989983 1.0310140267294519 -2.735241517860712 C 1.0143576620201 -2.8919490731753106 1.0079447464084899 -3.049732621042193 0.9961949077375519 -3.2069566527818867 C 0.9932251682932479 -3.2468544566205666 0.9909871037844983 -3.2873548162885258 0.9820348457494985 -3.326090548170739 C 0.9657658383589682 -3.396589580196367 0.9220805407362502 -3.4323986123363683 0.8644073399338438 -3.4293858331899743 C 0.8067341391314382 -3.4263730540435793 0.7627045238919876 -3.3847106224191545 0.7573676008326622 -3.3148571859248976 C 0.7501799705834065 -3.2206432780469356 0.7510838043273246 -3.1257837746376045 0.7483292633934795 -3.031182509440822 C 0.747769747266291 -3.012718477243633 0.7426910624195132 -2.968861020812549 0.7357186306807134 -2.977598080337093 C 0.7126063106576603 -3.006606839546661 0.6732249832440769 -3.357036093974418 0.6689210130349413 -3.532422879996662 C 0.6678450204826584 -3.577098090767481 0.6713312363520568 -3.723433077878065 0.5438476387574842 -3.723433077878065 C 0.43594710561447547 -3.723433077878065 0.43413943812663836 -3.5891492073530586 0.43250392944716703 -3.5553200015092594 C 0.4182147483528398 -3.259895486354246 0.45333514525937957 -2.970969966215027 0.5555974774284221 -2.6923309348756392 C 0.757410640534754 -2.1424126612544843 1.0841680588122682 -1.6818448091749691 1.5571743847961845 -1.3339979368726937 C 1.8665868031308865 -1.106490071617828 2.186113551457053 -0.8925827522238281 2.503316155870289 -0.6757487330876151 C 2.692690845072221 -0.5462853091968407 2.8871442191209313 -0.4243538331720522 3.077379702364689 -0.2961816003440161 C 3.1208498014769503 -0.2669146029219007 3.1531726177475528 -0.25 3.20542281608645 -0.25 L 3.20542281608645 -0.25 C 3.2576730144253463 -0.25 3.29003887039804 -0.2669146029219007 3.333465929808211 -0.2961816003440161 C 3.5237444527540607 -0.4243538331720522 3.7181978268027702 -0.5462853091968407 3.9075725160047012 -0.6757487330876151 C 4.224732080715846 -0.8925827522238281 4.544258829042013 -1.1064900716178272 4.853714287078807 -1.3339979368726937 C 5.326720613062722 -1.6818448091749691 5.653434991638145 -2.1424126612544843 5.855291194446568 -2.6923309348756392 C 5.95759656631771 -2.970969966215027 5.992673923522156 -3.259809406950063 5.978427782129922 -3.5553200015092594 Z" fill="#262626" transform="matrix(1,0,0,1,0,0)" fill-rule="nonzero"></path></g><g clip-path="url(#SvgjsClipPath2133646d5b19-b6d7-4973-9ec2-1f1692182517)"><path d=" M 0.6887192759969668 -3.860471489336917 C 0.7196645932807696 -3.850429754364817 0.7533325495500195 -3.8531020747514684 0.7823062926551456 -3.8678997540804447 C 0.8112800357602727 -3.8826974334094215 0.8331825234168053 -3.908406451478039 0.8431887668028155 -3.939363263270358 C 1.0290342004332569 -4.512910333339663 1.502384844033903 -4.869020828443477 2.0784282168245047 -4.869020828443477 C 2.3442844566427627 -4.869020828443477 2.5998542076611875 -4.76279884368203 2.798008996089754 -4.569894898908608 C 2.9760642436416607 -4.39661705828884 3.082415347509382 -4.175479068943494 3.0827166254240224 -3.978185074556754 C 3.0827166254240224 -3.9779268363442064 3.0827166254240224 -3.977668598131658 3.0827166254240224 -3.9774103599191095 C 3.0827166254240224 -3.9096653722775203 3.137634788742775 -3.8547472089587678 3.205379776384364 -3.8547472089587678 L 3.205379776384364 -3.8547472089587678 C 3.2379120667147245 -3.8547472089587678 3.269111919130004 -3.867670610973216 3.292115722230131 -3.8906744140733425 C 3.315119525330257 -3.9136782171734694 3.3280429273447067 -3.94487806958875 3.3280429273447067 -3.9774103599191095 L 3.3280429273447067 -3.978185074556754 C 3.3283011655572543 -4.175479068943494 3.4346953091270684 -4.39661705828884 3.612707516976883 -4.569894898908608 C 3.810690146597085 -4.76279884368203 4.066432056423875 -4.869020828443477 4.332288296242131 -4.869020828443477 C 4.90846078813901 -4.869020828443477 5.381811431739655 -4.5127381745312976 5.567527746263822 -3.939363263270358 C 5.58103609294772 -3.8976695994200847 5.615761625094224 -3.866349682558271 5.6586235705982375 -3.8572014224503133 C 5.701485516102252 -3.8480531623423557 5.745972125679071 -3.862466397352189 5.7753257237616875 -3.895011801251912 C 5.804679321844304 -3.927557205151636 5.814440398509163 -3.9732903567752835 5.800932050582695 -4.014984020222975 C 5.695054383560487 -4.34169839842028 5.504603701806273 -4.616937293294451 5.250023863935947 -4.8109172306201575 C 4.9894615074749264 -5.009545455771729 4.6720437045512355 -5.114519289172527 4.332116137433767 -5.114519289172527 C 4.002001622393127 -5.114519289172527 3.68565981202172 -4.9835925154106455 3.4414095026533196 -4.74588424076013 C 3.3470547026334216 -4.65435066271764 3.267383960704576 -4.54881015728347 3.205207617576002 -4.432985606556031 C 3.1429990293786205 -4.548800849146001 3.0633157485015214 -4.654338734366716 2.968962692796589 -4.745884240760131 C 2.7247554231302806 -4.9835925154106455 2.4084136127588724 -5.114519289172527 2.078256058016141 -5.114519289172527 C 1.7382424114944908 -5.114519289172527 1.4209537276770727 -5.009545455771729 1.1603483315139607 -4.8109172306201575 C 0.9058976127499109 -4.616937293294451 0.7154469309956952 -4.341784477824463 0.6094401447447045 -4.0149840198448565 C 0.5994257589556221 -3.983981855145041 0.6021560868151429 -3.9502693183262716 0.6170288719913507 -3.921282728324867 C 0.6319016571675575 -3.892296138323463 0.6576949556951045 -3.870417025451909 0.6887192759969668 -3.860471489336917 Z" fill="#407d7a" transform="matrix(1,0,0,1,0,0)" fill-rule="nonzero"></path></g><g clip-path="url(#SvgjsClipPath2133646d5b19-b6d7-4973-9ec2-1f1692182517)"><path d=" M 3.205465855788546 -1.9072437290273578 L 3.205465855788546 -1.9072437290273578 C 3.5872280133388035 -2.1461571153364316 4.009963967280026 -2.438568851345051 4.009963967280026 -2.8862678324992532 C 4.009963967280026 -3.2256358834895327 3.7097620451928712 -3.356820895463961 3.5396261028257725 -3.356820895463961 C 3.481049068279447 -3.356820895463961 3.3086320217015066 -3.3340098533555476 3.205465855788545 -3.1230292337037593 C 3.1021705707693097 -3.3339237739513647 2.930011762403917 -3.356820895463961 2.8713056087513174 -3.356820895463961 C 2.701126626682128 -3.356820895463961 2.400924704594974 -3.2256358834895327 2.400924704594974 -2.8862678324992532 C 2.400924704594974 -2.438654930749233 2.8236606585361956 -2.1459849565280664 3.205422816086454 -1.9072437290273578 L 3.205422816086454 -1.9072437290273578 Z" fill="#407d7a" transform="matrix(1,0,0,1,0,0)" fill-rule="nonzero"></path></g></g><g><path d=" M 0.835693359375 0.25341796875 Q 0.835693359375 0.298095703125 0.822509765625 0.331787109375 Q 0.809326171875 0.365478515625 0.7869873046875 0.390380859375 Q 0.7646484375 0.415283203125 0.7342529296875 0.43212890625 Q 0.703857421875 0.448974609375 0.66943359375 0.4595947265625 Q 0.635009765625 0.47021484375 0.5980224609375 0.475341796875 Q 0.56103515625 0.48046875 0.52587890625 0.48193359375 L 0.79541015625 0.765380859375 Q 0.802001953125 0.77197265625 0.8045654296875 0.7789306640625 Q 0.80712890625 0.785888671875 0.807861328125 0.791748046875 Q 0.807861328125 0.802001953125 0.8009033203125 0.8089599609375 Q 0.7939453125 0.81591796875 0.782958984375 0.81591796875 Q 0.77490234375 0.81591796875 0.7657470703125 0.812255859375 Q 0.756591796875 0.80859375 0.747802734375 0.79833984375 L 0.4541015625 0.48486328125 L 0.18017578125 0.48486328125 L 0.18017578125 0.76025390625 Q 0.18017578125 0.771240234375 0.1790771484375 0.7811279296875 Q 0.177978515625 0.791015625 0.175048828125 0.7987060546875 Q 0.172119140625 0.806396484375 0.1666259765625 0.8111572265625 Q 0.1611328125 0.81591796875 0.15234375 0.81591796875 Q 0.131103515625 0.81591796875 0.12451171875 0.7994384765625 Q 0.117919921875 0.782958984375 0.117919921875 0.76025390625 L 0.117919921875 0.027099609375 Q 0.117919921875 0.01611328125 0.1182861328125 0.0106201171875 Q 0.11865234375 0.005126953125 0.120849609375 0.0029296875 Q 0.123046875 0.000732421875 0.1285400390625 0.0003662109375 Q 0.134033203125 0 0.14501953125 0 L 0.357421875 0 Q 0.425537109375 0 0.4874267578125 0.00146484375 Q 0.54931640625 0.0029296875 0.6024169921875 0.0106201171875 Q 0.655517578125 0.018310546875 0.69873046875 0.0340576171875 Q 0.741943359375 0.0498046875 0.7723388671875 0.0780029296875 Q 0.802734375 0.106201171875 0.8192138671875 0.148681640625 Q 0.835693359375 0.191162109375 0.835693359375 0.25341796875 M 0.7734375 0.25341796875 Q 0.7734375 0.180908203125 0.7467041015625 0.1395263671875 Q 0.719970703125 0.09814453125 0.667236328125 0.0780029296875 Q 0.614501953125 0.057861328125 0.536865234375 0.0531005859375 Q 0.459228515625 0.04833984375 0.357421875 0.04833984375 L 0.18017578125 0.04833984375 L 0.18017578125 0.4365234375 L 0.454833984375 0.4365234375 Q 0.5185546875 0.4365234375 0.576416015625 0.4306640625 Q 0.63427734375 0.4248046875 0.6778564453125 0.4053955078125 Q 0.721435546875 0.385986328125 0.7474365234375 0.35009765625 Q 0.7734375 0.314208984375 0.7734375 0.25341796875 M 1.095703125 0.769775390625 Q 1.095703125 0.779296875 1.094970703125 0.7877197265625 Q 1.09423828125 0.796142578125 1.0916748046875 0.8023681640625 Q 1.089111328125 0.80859375 1.083251953125 0.812255859375 Q 1.077392578125 0.81591796875 1.06640625 0.81591796875 Q 1.0458984375 0.81591796875 1.04150390625 0.803466796875 Q 1.037109375 0.791015625 1.037109375 0.769775390625 L 1.037109375 0.299560546875 Q 1.037109375 0.28125 1.042236328125 0.26806640625 Q 1.04736328125 0.2548828125 1.06787109375 0.2548828125 Q 1.086181640625 0.2548828125 1.0909423828125 0.26806640625 Q 1.095703125 0.28125 1.095703125 0.298095703125 L 1.095703125 0.769775390625 M 1.027587890625 0.08935546875 Q 1.027587890625 0.072509765625 1.03857421875 0.0611572265625 Q 1.049560546875 0.0498046875 1.06640625 0.0498046875 Q 1.083251953125 0.0498046875 1.094970703125 0.0611572265625 Q 1.106689453125 0.072509765625 1.106689453125 0.08935546875 Q 1.106689453125 0.106201171875 1.094970703125 0.116455078125 Q 1.083251953125 0.126708984375 1.06640625 0.126708984375 Q 1.049560546875 0.126708984375 1.03857421875 0.116455078125 Q 1.027587890625 0.106201171875 1.027587890625 0.08935546875 M 1.94970703125 0.662841796875 Q 1.94970703125 0.6240234375 1.9222412109375 0.602783203125 Q 1.894775390625 0.58154296875 1.8497314453125 0.5716552734375 Q 1.8046875 0.561767578125 1.7471923828125 0.5592041015625 Q 1.689697265625 0.556640625 1.6300048828125 0.5548095703125 Q 1.5703125 0.552978515625 1.5128173828125 0.5482177734375 Q 1.455322265625 0.54345703125 1.4102783203125 0.5284423828125 Q 1.365234375 0.513427734375 1.3377685546875 0.4852294921875 Q 1.310302734375 0.45703125 1.310302734375 0.407958984375 Q 1.310302734375 0.357421875 1.3377685546875 0.3251953125 Q 1.365234375 0.29296875 1.409912109375 0.27392578125 Q 1.45458984375 0.2548828125 1.510986328125 0.24755859375 Q 1.5673828125 0.240234375 1.6259765625 0.240234375 Q 1.721923828125 0.240234375 1.8046875 0.2559814453125 Q 1.887451171875 0.271728515625 1.95849609375 0.30908203125 Q 1.9658203125 0.312744140625 1.9683837890625 0.3182373046875 Q 1.970947265625 0.32373046875 1.9716796875 0.32958984375 Q 1.9716796875 0.339111328125 1.9658203125 0.346435546875 Q 1.9599609375 0.353759765625 1.95263671875 0.353759765625 Q 1.9482421875 0.353759765625 1.94677734375 0.352294921875 Q 1.884521484375 0.32080078125 1.8057861328125 0.3021240234375 Q 1.72705078125 0.283447265625 1.62890625 0.283447265625 Q 1.5791015625 0.283447265625 1.5322265625 0.2896728515625 Q 1.4853515625 0.2958984375 1.4490966796875 0.3101806640625 Q 1.412841796875 0.324462890625 1.390869140625 0.3482666015625 Q 1.368896484375 0.3720703125 1.368896484375 0.407958984375 Q 1.368896484375 0.444580078125 1.3963623046875 0.46435546875 Q 1.423828125 0.484130859375 1.4688720703125 0.4932861328125 Q 1.513916015625 0.50244140625 1.5714111328125 0.504638671875 Q 1.62890625 0.5068359375 1.6885986328125 0.509033203125 Q 1.748291015625 0.51123046875 1.8057861328125 0.5167236328125 Q 1.86328125 0.522216796875 1.9083251953125 0.5379638671875 Q 1.953369140625 0.5537109375 1.9808349609375 0.5833740234375 Q 2.00830078125 0.613037109375 2.00830078125 0.662841796875 Q 2.00830078125 0.70751953125 1.98046875 0.73828125 Q 1.95263671875 0.76904296875 1.906494140625 0.7877197265625 Q 1.8603515625 0.806396484375 1.7999267578125 0.8148193359375 Q 1.739501953125 0.8232421875 1.675048828125 0.8232421875 Q 1.635498046875 0.8232421875 1.5897216796875 0.8214111328125 Q 1.5439453125 0.819580078125 1.4981689453125 0.8126220703125 Q 1.452392578125 0.8056640625 1.4102783203125 0.7913818359375 Q 1.3681640625 0.777099609375 1.336669921875 0.752197265625 Q 1.326416015625 0.744140625 1.326416015625 0.733154296875 Q 1.326416015625 0.7236328125 1.3319091796875 0.7166748046875 Q 1.33740234375 0.709716796875 1.345458984375 0.709716796875 Q 1.351318359375 0.709716796875 1.354248046875 0.712646484375 Q 1.385009765625 0.73388671875 1.4205322265625 0.7470703125 Q 1.4560546875 0.76025390625 1.49560546875 0.767578125 Q 1.53515625 0.77490234375 1.578369140625 0.7774658203125 Q 1.62158203125 0.780029296875 1.667724609375 0.780029296875 Q 1.72265625 0.780029296875 1.7735595703125 0.7745361328125 Q 1.824462890625 0.76904296875 1.8636474609375 0.7554931640625 Q 1.90283203125 0.741943359375 1.92626953125 0.7196044921875 Q 1.94970703125 0.697265625 1.94970703125 0.662841796875 M 2.5283203125 0.283447265625 Q 2.460205078125 0.283447265625 2.407470703125 0.295166015625 Q 2.354736328125 0.306884765625 2.3177490234375 0.3328857421875 Q 2.28076171875 0.35888671875 2.26025390625 0.39990234375 Q 2.23974609375 0.44091796875 2.23681640625 0.500244140625 L 2.7890625 0.500244140625 L 2.7890625 0.460693359375 Q 2.7890625 0.424072265625 2.7755126953125 0.391845703125 Q 2.761962890625 0.359619140625 2.731201171875 0.33544921875 Q 2.700439453125 0.311279296875 2.650634765625 0.29736328125 Q 2.600830078125 0.283447265625 2.5283203125 0.283447265625 M 2.490234375 0.780029296875 Q 2.559814453125 0.780029296875 2.61181640625 0.771240234375 Q 2.663818359375 0.762451171875 2.701171875 0.75 Q 2.738525390625 0.737548828125 2.7623291015625 0.724365234375 Q 2.7861328125 0.711181640625 2.79931640625 0.702392578125 Q 2.8037109375 0.700927734375 2.80517578125 0.700927734375 Q 2.813232421875 0.700927734375 2.8201904296875 0.7086181640625 Q 2.8271484375 0.71630859375 2.8271484375 0.72509765625 Q 2.8271484375 0.733154296875 2.81982421875 0.73828125 Q 2.813232421875 0.744873046875 2.7916259765625 0.7587890625 Q 2.77001953125 0.772705078125 2.729736328125 0.7869873046875 Q 2.689453125 0.80126953125 2.630126953125 0.812255859375 Q 2.57080078125 0.8232421875 2.489501953125 0.8232421875 Q 2.404541015625 0.8232421875 2.34521484375 0.802001953125 Q 2.285888671875 0.78076171875 2.24853515625 0.74267578125 Q 2.211181640625 0.70458984375 2.1943359375 0.651123046875 Q 2.177490234375 0.59765625 2.177490234375 0.533935546875 Q 2.177490234375 0.448974609375 2.20458984375 0.392578125 Q 2.231689453125 0.336181640625 2.2789306640625 0.3021240234375 Q 2.326171875 0.26806640625 2.3902587890625 0.254150390625 Q 2.454345703125 0.240234375 2.5283203125 0.240234375 Q 2.6806640625 0.240234375 2.7564697265625 0.2984619140625 Q 2.832275390625 0.356689453125 2.832275390625 0.465087890625 Q 2.832275390625 0.475341796875 2.830810546875 0.48779296875 Q 2.829345703125 0.500244140625 2.8267822265625 0.5115966796875 Q 2.82421875 0.52294921875 2.8209228515625 0.5306396484375 Q 2.817626953125 0.538330078125 2.814697265625 0.538330078125 L 2.599365234375 0.538330078125 L 2.236083984375 0.531005859375 Q 2.237548828125 0.59912109375 2.2540283203125 0.6463623046875 Q 2.2705078125 0.693603515625 2.3023681640625 0.7232666015625 Q 2.334228515625 0.7529296875 2.381103515625 0.7664794921875 Q 2.427978515625 0.780029296875 2.490234375 0.780029296875 M 3.076171875 0.7646484375 Q 3.076171875 0.785888671875 3.0699462890625 0.8009033203125 Q 3.063720703125 0.81591796875 3.046142578125 0.81591796875 Q 3.02490234375 0.81591796875 3.0194091796875 0.8009033203125 Q 3.013916015625 0.785888671875 3.013916015625 0.76611328125 L 3.013916015625 0.027099609375 Q 3.013916015625 0.01611328125 3.0142822265625 0.0106201171875 Q 3.0146484375 0.005126953125 3.016845703125 0.0029296875 Q 3.01904296875 0.000732421875 3.0245361328125 0.0003662109375 Q 3.030029296875 0 3.041015625 0 L 3.75732421875 0 Q 3.766845703125 0 3.7752685546875 0.0003662109375 Q 3.78369140625 0.000732421875 3.7899169921875 0.0032958984375 Q 3.796142578125 0.005859375 3.7998046875 0.010986328125 Q 3.803466796875 0.01611328125 3.803466796875 0.025634765625 Q 3.803466796875 0.04248046875 3.791015625 0.04541015625 Q 3.778564453125 0.04833984375 3.75732421875 0.04833984375 L 3.076171875 0.04833984375 L 3.076171875 0.380859375 L 3.652587890625 0.380859375 Q 3.673828125 0.380859375 3.6873779296875 0.3837890625 Q 3.700927734375 0.38671875 3.700927734375 0.403564453125 Q 3.700927734375 0.4130859375 3.6968994140625 0.418212890625 Q 3.69287109375 0.42333984375 3.686279296875 0.4259033203125 Q 3.6796875 0.428466796875 3.6708984375 0.4288330078125 Q 3.662109375 0.42919921875 3.652587890625 0.42919921875 L 3.076171875 0.42919921875 L 3.076171875 0.7646484375 M 4.44287109375 0.712646484375 Q 4.427490234375 0.73095703125 4.4036865234375 0.7503662109375 Q 4.3798828125 0.769775390625 4.3450927734375 0.785888671875 Q 4.310302734375 0.802001953125 4.263427734375 0.8126220703125 Q 4.216552734375 0.8232421875 4.155029296875 0.8232421875 Q 4.07666015625 0.8232421875 4.0213623046875 0.8082275390625 Q 3.966064453125 0.793212890625 3.930908203125 0.7613525390625 Q 3.895751953125 0.7294921875 3.879638671875 0.6800537109375 Q 3.863525390625 0.630615234375 3.863525390625 0.56103515625 L 3.863525390625 0.3076171875 Q 3.863525390625 0.298095703125 3.8646240234375 0.28857421875 Q 3.86572265625 0.279052734375 3.86865234375 0.271728515625 Q 3.87158203125 0.264404296875 3.87744140625 0.2596435546875 Q 3.88330078125 0.2548828125 3.892822265625 0.2548828125 Q 3.90380859375 0.2548828125 3.90966796875 0.2596435546875 Q 3.91552734375 0.264404296875 3.9180908203125 0.271728515625 Q 3.920654296875 0.279052734375 3.92138671875 0.28857421875 Q 3.922119140625 0.298095703125 3.922119140625 0.3076171875 L 3.922119140625 0.56103515625 Q 3.922119140625 0.62255859375 3.932373046875 0.664306640625 Q 3.942626953125 0.7060546875 3.9686279296875 0.731689453125 Q 3.99462890625 0.75732421875 4.0396728515625 0.7686767578125 Q 4.084716796875 0.780029296875 4.155029296875 0.780029296875 Q 4.206298828125 0.780029296875 4.2498779296875 0.771240234375 Q 4.29345703125 0.762451171875 4.329345703125 0.7489013671875 Q 4.365234375 0.7353515625 4.393798828125 0.718505859375 Q 4.42236328125 0.70166015625 4.443603515625 0.685546875 L 4.443603515625 0.3076171875 Q 4.443603515625 0.298095703125 4.4443359375 0.28857421875 Q 4.445068359375 0.279052734375 4.4476318359375 0.271728515625 Q 4.4501953125 0.264404296875 4.4556884765625 0.2596435546875 Q 4.461181640625 0.2548828125 4.470703125 0.2548828125 Q 4.481689453125 0.2548828125 4.4879150390625 0.2596435546875 Q 4.494140625 0.264404296875 4.4974365234375 0.271728515625 Q 4.500732421875 0.279052734375 4.50146484375 0.28857421875 Q 4.502197265625 0.298095703125 4.502197265625 0.3076171875 L 4.502197265625 0.7646484375 Q 4.502197265625 0.774169921875 4.5010986328125 0.7833251953125 Q 4.5 0.79248046875 4.4970703125 0.7998046875 Q 4.494140625 0.80712890625 4.4886474609375 0.8115234375 Q 4.483154296875 0.81591796875 4.474365234375 0.81591796875 Q 4.453857421875 0.81591796875 4.4483642578125 0.8023681640625 Q 4.44287109375 0.788818359375 4.44287109375 0.771240234375 L 4.44287109375 0.7646484375 L 4.44287109375 0.712646484375 M 5.384033203125 0.76318359375 Q 5.384033203125 0.772705078125 5.382568359375 0.7822265625 Q 5.381103515625 0.791748046875 5.3778076171875 0.799072265625 Q 5.37451171875 0.806396484375 5.36865234375 0.8111572265625 Q 5.36279296875 0.81591796875 5.35400390625 0.81591796875 Q 5.343017578125 0.81591796875 5.3375244140625 0.8111572265625 Q 5.33203125 0.806396484375 5.3291015625 0.799072265625 Q 5.326171875 0.791748046875 5.3258056640625 0.7822265625 Q 5.325439453125 0.772705078125 5.325439453125 0.76318359375 L 5.325439453125 0.509765625 Q 5.325439453125 0.45263671875 5.3170166015625 0.41015625 Q 5.30859375 0.36767578125 5.2840576171875 0.3394775390625 Q 5.259521484375 0.311279296875 5.2159423828125 0.29736328125 Q 5.17236328125 0.283447265625 5.10205078125 0.283447265625 Q 5.058837890625 0.283447265625 5.010498046875 0.2904052734375 Q 4.962158203125 0.29736328125 4.918212890625 0.3145751953125 Q 4.874267578125 0.331787109375 4.840576171875 0.3603515625 Q 4.806884765625 0.388916015625 4.793701171875 0.43212890625 L 4.793701171875 0.76318359375 Q 4.793701171875 0.772705078125 4.79296875 0.7822265625 Q 4.792236328125 0.791748046875 4.789306640625 0.799072265625 Q 4.786376953125 0.806396484375 4.7808837890625 0.8111572265625 Q 4.775390625 0.81591796875 4.7666015625 0.81591796875 Q 4.75634765625 0.81591796875 4.7501220703125 0.8111572265625 Q 4.743896484375 0.806396484375 4.7406005859375 0.799072265625 Q 4.7373046875 0.791748046875 4.7362060546875 0.7822265625 Q 4.735107421875 0.772705078125 4.735107421875 0.76318359375 L 4.735107421875 0.28857421875 Q 4.735107421875 0.276123046875 4.740234375 0.2655029296875 Q 4.745361328125 0.2548828125 4.765869140625 0.2548828125 Q 4.7841796875 0.2548828125 4.7889404296875 0.2647705078125 Q 4.793701171875 0.274658203125 4.793701171875 0.28857421875 L 4.793701171875 0.380859375 Q 4.814208984375 0.333984375 4.850830078125 0.3057861328125 Q 4.887451171875 0.277587890625 4.9310302734375 0.2633056640625 Q 4.974609375 0.2490234375 5.0196533203125 0.24462890625 Q 5.064697265625 0.240234375 5.10205078125 0.240234375 Q 5.18115234375 0.240234375 5.2349853515625 0.2537841796875 Q 5.288818359375 0.267333984375 5.3221435546875 0.298828125 Q 5.35546875 0.330322265625 5.3697509765625 0.3819580078125 Q 5.384033203125 0.43359375 5.384033203125 0.509765625 L 5.384033203125 0.76318359375 M 5.90625 0.8232421875 Q 5.84033203125 0.8232421875 5.7813720703125 0.8096923828125 Q 5.722412109375 0.796142578125 5.6781005859375 0.76318359375 Q 5.6337890625 0.730224609375 5.6077880859375 0.67529296875 Q 5.581787109375 0.620361328125 5.581787109375 0.53759765625 Q 5.581787109375 0.45556640625 5.6033935546875 0.3988037109375 Q 5.625 0.342041015625 5.6663818359375 0.306884765625 Q 5.707763671875 0.271728515625 5.7681884765625 0.2559814453125 Q 5.82861328125 0.240234375 5.90625 0.240234375 Q 5.98388671875 0.240234375 6.03955078125 0.2493896484375 Q 6.09521484375 0.258544921875 6.1336669921875 0.2724609375 Q 6.172119140625 0.286376953125 6.1966552734375 0.3028564453125 Q 6.22119140625 0.3193359375 6.23583984375 0.333251953125 L 6.23583984375 0.052001953125 Q 6.23583984375 0.04248046875 6.2362060546875 0.032958984375 Q 6.236572265625 0.0234375 6.239501953125 0.01611328125 Q 6.242431640625 0.0087890625 6.2479248046875 0.00439453125 Q 6.25341796875 0 6.264404296875 0 Q 6.275390625 0 6.28125 0.0040283203125 Q 6.287109375 0.008056640625 6.2900390625 0.0146484375 Q 6.29296875 0.021240234375 6.293701171875 0.0303955078125 Q 6.29443359375 0.03955078125 6.29443359375 0.050537109375 L 6.29443359375 0.7763671875 Q 6.29443359375 0.7998046875 6.2852783203125 0.807861328125 Q 6.276123046875 0.81591796875 6.265869140625 0.81591796875 Q 6.25341796875 0.81591796875 6.24462890625 0.80859375 Q 6.23583984375 0.80126953125 6.23583984375 0.77783203125 L 6.23583984375 0.676025390625 Q 6.227783203125 0.70751953125 6.207275390625 0.7305908203125 Q 6.186767578125 0.753662109375 6.1585693359375 0.769775390625 Q 6.13037109375 0.785888671875 6.0966796875 0.7965087890625 Q 6.06298828125 0.80712890625 6.0289306640625 0.81298828125 Q 5.994873046875 0.81884765625 5.9630126953125 0.821044921875 Q 5.93115234375 0.8232421875 5.90625 0.8232421875 M 5.90625 0.780029296875 Q 5.9501953125 0.779296875 6.002197265625 0.7730712890625 Q 6.05419921875 0.766845703125 6.101806640625 0.750732421875 Q 6.1494140625 0.734619140625 6.18603515625 0.7060546875 Q 6.22265625 0.677490234375 6.23583984375 0.63134765625 L 6.23583984375 0.36767578125 Q 6.218994140625 0.3544921875 6.1929931640625 0.33984375 Q 6.1669921875 0.3251953125 6.1278076171875 0.3123779296875 Q 6.088623046875 0.299560546875 6.0340576171875 0.29150390625 Q 5.9794921875 0.283447265625 5.90625 0.283447265625 Q 5.8359375 0.283447265625 5.7857666015625 0.298095703125 Q 5.735595703125 0.312744140625 5.7030029296875 0.3438720703125 Q 5.67041015625 0.375 5.6553955078125 0.4229736328125 Q 5.640380859375 0.470947265625 5.640380859375 0.53759765625 Q 5.640380859375 0.607177734375 5.6612548828125 0.6536865234375 Q 5.68212890625 0.7001953125 5.718017578125 0.72802734375 Q 5.75390625 0.755859375 5.8026123046875 0.7679443359375 Q 5.851318359375 0.780029296875 5.90625 0.780029296875" fill="#262626" fill-rule="nonzero"></path></g><g></g></g><defs><clipPath id="SvgjsClipPath2138"><path d=" M 0.42944811059868515 -5.114519289172526 h 5.55199245067763 v 4.864519289172526 h -5.55199245067763 Z"></path></clipPath><clipPath id="SvgjsClipPath2133646d5b19-b6d7-4973-9ec2-1f1692182517"><path d=" M 0.42944811059868515 -5.114519289172526 L 5.981440561276315 -5.114519289172526 L 5.981440561276315 -0.25 L 0.42944811059868515 -0.25 Z"></path></clipPath></defs></svg>