<svg xmlns="http://www.w3.org/2000/svg" version="1.1" xmlns:xlink="http://www.w3.org/1999/xlink" viewBox="0 0 6.662390940813156 6.928954269145004"><g transform="matrix(0.8571428571428571,0,0,0.8571428571428571,0.9815139520247119,5.354684048573462)"><g transform="matrix(1,0,0,1,0,0)" clip-path="url(#SvgjsClipPath44242)"><g clip-path="url(#SvgjsClipPath44240311c681d-eef2-4193-9fa2-d787c2cd5e66)"><path d=" M 5.514278550971266 -3.5553200015092594 C 5.512643042291794 -3.5891492073530586 5.510835374803958 -3.723433077878065 5.402934841660948 -3.723433077878065 C 5.275408204364284 -3.723433077878065 5.278894420233683 -3.577098090767481 5.2778184276813995 -3.532422879996662 C 5.273514457472264 -3.357036093974418 5.234176169760772 -3.006606839546661 5.211020810035627 -2.977598080337093 C 5.20404837829683 -2.968990139918823 5.198969693450049 -3.012718477243633 5.198453217024953 -3.031182509440822 C 5.195698676091106 -3.1258698540417873 5.196559470132933 -3.2205571986427537 5.189371839883677 -3.3148571859248976 C 5.184077956526442 -3.3847106224191554 5.13991922218072 -3.4261578555331225 5.082375140484585 -3.4293858331899743 C 5.024831058788452 -3.432613810846825 4.981016642059459 -3.396804778706824 4.9647045949668405 -3.326090548170739 C 4.9557953766339295 -3.2873548162885258 4.95351427242309 -3.2468544566205666 4.950544532978787 -3.2069566527818867 C 4.938837734009941 -3.049732621042193 4.932381778696238 -2.8919490731753097 4.915725413986885 -2.735241517860712 C 4.8967879450666905 -2.556798912989983 4.840276816220751 -2.388728876323268 4.754886047271516 -2.2302997329250167 C 4.6664824991758875 -2.0662897748222524 4.5403187857787835 -1.940699924119699 4.376394907080203 -1.8535301808173559 C 4.295996743573564 -1.810920875746921 4.212155403899619 -1.7748105656922801 4.112733692068603 -1.72755297279598 C 4.120136520828313 -1.766288704678193 4.121341632486872 -1.7874211984050454 4.128184945119397 -1.8065308261336037 C 4.184911272475794 -1.9665093988071445 4.260402909944019 -2.1175787531477757 4.345234162766065 -2.2644302166834565 C 4.375361954230008 -2.316077859193073 4.40419855463121 -2.370566122040721 4.421328356063569 -2.4274646082054834 C 4.462259112752441 -2.5632548683036864 4.379665924439144 -2.6834217165427305 4.249470825612816 -2.6830773989259997 C 4.176905887886803 -2.6830773989259997 4.11359448611043 -2.6544129573331614 4.070210466402351 -2.595749843382655 C 4.038444145168334 -2.551634320989393 4.010742339443396 -2.504729963506084 3.9874451192806903 -2.4556125733732244 C 3.945997886166719 -2.370652201444904 3.909973655516262 -2.28302336798692 3.869344176742028 -2.1976756387397764 C 3.801513606246064 -2.055257264519506 3.702479251733872 -1.9376727984059423 3.5787831479233376 -1.8404461113815866 C 3.5134488801486707 -1.7887984688719687 3.4481146123740043 -1.7374521042769908 3.3835120195348907 -1.6851158265339117 C 3.1550142411319224 -1.5000451075411156 3.0413894276107656 -1.2611317212320419 3.0407868717814863 -0.9660945633958509 C 3.0403995144626625 -0.7576102464653607 3.071775457287256 -0.7969054944747613 2.8845097134878013 -0.6684750234341781 C 2.8059622571710903 -0.6145893164158096 2.774801512856955 -0.5888085348630927 2.741316624629886 -0.5887654951610024 C 2.7078317364028166 -0.5887224554589103 2.6767570714928635 -0.6145893164158096 2.59808049606988 -0.6684750234341781 C 2.4108147522704235 -0.7969054944747604 2.4422337347971084 -0.7576102464653607 2.4418033377761947 -0.9660945633958509 C 2.441243821649007 -1.2611317212320419 2.3276190081278485 -1.5000020678390236 2.099121229724881 -1.6851158265339117 C 2.0345616765878587 -1.7374521042769917 1.969184369111101 -1.7890136673824264 1.9038070616343423 -1.8404461113815866 C 1.780110957823808 -1.9378019175122163 1.681119643013708 -2.05538638362578 1.613246032815652 -2.1976756387397764 C 1.572573514339328 -2.283023367986919 1.536635363093053 -2.370652201444904 1.4951450902769927 -2.4556125733732252 C 1.4718636898168413 -2.5047294604903865 1.4441762112829029 -2.551633950660262 1.412422782857421 -2.595749843382655 C 1.3690387631493428 -2.6544129573331623 1.305684321670878 -2.682862200415543 1.2331624236469558 -2.6830773989259997 C 1.1029242851185372 -2.6834217165427305 1.0203741365073313 -2.5632548683036873 1.061261853494112 -2.4274646082054834 C 1.0784777343306513 -2.370566122040721 1.1074434538381286 -2.31625001800144 1.1373990864937067 -2.2644302166834565 C 1.222230339315754 -2.117578753147777 1.2977219767839783 -1.9665093988071445 1.3544052644382838 -1.8065308261336037 C 1.3612055373687169 -1.787421198405044 1.3624967284314575 -1.7663317443802842 1.369856517489078 -1.72755297279598 C 1.2704348056580643 -1.7748966450964634 1.186593465984118 -1.810920875746921 1.1062383421795707 -1.8535301808173559 C 0.9423431566157177 -1.9404703790418796 0.8161794432186121 -2.066060229744432 0.7277472019882549 -2.2302997329250167 C 0.64231339333693 -2.388728876323268 0.5857161850868065 -2.556798912989983 0.5668647955707958 -2.735241517860712 C 0.550208430861444 -2.8919490731753106 0.5437955152498336 -3.049732621042193 0.5320456765788958 -3.2069566527818867 C 0.5290759371345918 -3.2468544566205666 0.5268378726258421 -3.2873548162885258 0.5178856145908424 -3.326090548170739 C 0.5016166072003121 -3.396589580196367 0.45793130957759415 -3.4323986123363683 0.40025810877518764 -3.4293858331899743 C 0.34258490797278207 -3.4263730540435793 0.2985552927333315 -3.3847106224191545 0.293218369674006 -3.3148571859248976 C 0.2860307394247504 -3.2206432780469356 0.28693457316866844 -3.1257837746376045 0.2841800322348233 -3.031182509440822 C 0.2836205161076349 -3.012718477243633 0.2785418312608571 -2.968861020812549 0.2715693995220573 -2.977598080337093 C 0.24845707949900414 -3.006606839546661 0.20907575208542073 -3.357036093974418 0.20477178187628517 -3.532422879996662 C 0.20369578932400226 -3.577098090767481 0.2071820051934007 -3.723433077878065 0.07969840759882812 -3.723433077878065 C -0.028202125544180643 -3.723433077878065 -0.030009793032017774 -3.5891492073530586 -0.031645301711489084 -3.5553200015092594 C -0.04593448280581636 -3.259895486354246 -0.010814085899276564 -2.970969966215027 0.091448246269766 -2.6923309348756392 C 0.2932614093760979 -2.1424126612544843 0.620018827653612 -1.6818448091749691 1.0930251536375284 -1.3339979368726937 C 1.4024375719722304 -1.106490071617828 1.721964320298397 -0.8925827522238281 2.039166924711633 -0.6757487330876151 C 2.2285416139135648 -0.5462853091968407 2.422994987962275 -0.4243538331720522 2.613230471206033 -0.2961816003440161 C 2.656700570318294 -0.2669146029219007 2.6890233865888966 -0.25 2.741273584927794 -0.25 L 2.741273584927794 -0.25 C 2.79352378326669 -0.25 2.8258896392393837 -0.2669146029219007 2.869316698649555 -0.2961816003440161 C 3.0595952215954045 -0.4243538331720522 3.254048595644114 -0.5462853091968407 3.443423284846045 -0.6757487330876151 C 3.76058284955719 -0.8925827522238281 4.080109597883356 -1.1064900716178272 4.389565055920151 -1.3339979368726937 C 4.862571381904066 -1.6818448091749691 5.189285760479489 -2.1424126612544843 5.391141963287913 -2.6923309348756392 C 5.493447335159053 -2.970969966215027 5.528524692363501 -3.259809406950063 5.514278550971266 -3.5553200015092594 Z" fill="#8f8f8f" transform="matrix(1,0,0,1,0,0)" fill-rule="nonzero"></path></g><g clip-path="url(#SvgjsClipPath44240311c681d-eef2-4193-9fa2-d787c2cd5e66)"><path d=" M 0.22457004483831067 -3.860471489336917 C 0.25551536212211345 -3.850429754364817 0.28918331839136335 -3.8531020747514684 0.31815706149648953 -3.8678997540804447 C 0.34713080460161666 -3.8826974334094215 0.3690332922581492 -3.908406451478039 0.37903953564415943 -3.939363263270358 C 0.5648849692746007 -4.512910333339663 1.0382356128752468 -4.869020828443477 1.6142789856658488 -4.869020828443477 C 1.8801352254841068 -4.869020828443477 2.1357049765025313 -4.76279884368203 2.333859764931098 -4.569894898908608 C 2.5119150124830045 -4.39661705828884 2.6182661163507257 -4.175479068943494 2.618567394265366 -3.978185074556754 C 2.618567394265366 -3.9779268363442064 2.618567394265366 -3.977668598131658 2.618567394265366 -3.9774103599191095 C 2.618567394265366 -3.9096653722775203 2.6734855575841188 -3.8547472089587678 2.741230545225708 -3.8547472089587678 L 2.741230545225708 -3.8547472089587678 C 2.7737628355560684 -3.8547472089587678 2.804962687971348 -3.867670610973216 2.827966491071475 -3.8906744140733425 C 2.850970294171601 -3.9136782171734694 2.8638936961860506 -3.94487806958875 2.8638936961860506 -3.9774103599191095 L 2.8638936961860506 -3.978185074556754 C 2.864151934398598 -4.175479068943494 2.9705460779684123 -4.39661705828884 3.148558285818227 -4.569894898908608 C 3.3465409154384287 -4.76279884368203 3.602282825265219 -4.869020828443477 3.868139065083475 -4.869020828443477 C 4.444311556980353 -4.869020828443477 4.917662200580999 -4.5127381745312976 5.103378515105166 -3.939363263270358 C 5.116886861789064 -3.8976695994200847 5.151612393935568 -3.866349682558271 5.194474339439581 -3.8572014224503133 C 5.237336284943597 -3.8480531623423557 5.281822894520414 -3.862466397352189 5.311176492603031 -3.895011801251912 C 5.340530090685648 -3.927557205151636 5.350291167350507 -3.9732903567752835 5.336782819424039 -4.014984020222975 C 5.2309051524018315 -4.34169839842028 5.040454470647616 -4.616937293294451 4.785874632777291 -4.8109172306201575 C 4.52531227631627 -5.009545455771729 4.207894473392579 -5.114519289172527 3.867966906275111 -5.114519289172527 C 3.5378523912344715 -5.114519289172527 3.2215105808630637 -4.9835925154106455 2.9772602714946634 -4.74588424076013 C 2.8829054714747655 -4.65435066271764 2.80323472954592 -4.54881015728347 2.741058386417346 -4.432985606556031 C 2.6788497982199644 -4.548800849146001 2.5991665173428653 -4.654338734366716 2.5048134616379327 -4.745884240760131 C 2.2606061919716245 -4.9835925154106455 1.9442643816002165 -5.114519289172527 1.614106826857485 -5.114519289172527 C 1.2740931803358346 -5.114519289172527 0.9568044965184167 -5.009545455771729 0.6961991003553044 -4.8109172306201575 C 0.44174838159125474 -4.616937293294451 0.2512976998370391 -4.341784477824463 0.1452909135860484 -4.0149840198448565 C 0.135276527796966 -3.983981855145041 0.13800685565648674 -3.9502693183262716 0.15287964083269454 -3.921282728324867 C 0.16775242600890136 -3.892296138323463 0.19354572453644836 -3.870417025451909 0.22457004483831067 -3.860471489336917 Z" fill="#bdddda" transform="matrix(1,0,0,1,0,0)" fill-rule="nonzero"></path></g><g clip-path="url(#SvgjsClipPath44240311c681d-eef2-4193-9fa2-d787c2cd5e66)"><path d=" M 2.74131662462989 -1.9072437290273578 L 2.74131662462989 -1.9072437290273578 C 3.1230787821801473 -2.1461571153364316 3.545814736121369 -2.438568851345051 3.545814736121369 -2.8862678324992532 C 3.545814736121369 -3.2256358834895327 3.245612814034215 -3.356820895463961 3.0754768716671164 -3.356820895463961 C 3.016899837120791 -3.356820895463961 2.8444827905428505 -3.3340098533555476 2.741316624629889 -3.1230292337037593 C 2.6380213396106535 -3.3339237739513647 2.4658625312452607 -3.356820895463961 2.407156377592661 -3.356820895463961 C 2.2369773955234717 -3.356820895463961 1.9367754734363183 -3.2256358834895327 1.9367754734363183 -2.8862678324992532 C 1.9367754734363183 -2.438654930749233 2.3595114273775395 -2.1459849565280664 2.741273584927798 -1.9072437290273578 L 2.741273584927798 -1.9072437290273578 Z" fill="#bdddda" transform="matrix(1,0,0,1,0,0)" fill-rule="nonzero"></path></g></g><g><path d=" M 0.714684728562244 0.21672297640888377 Q 0.714684728562244 0.2549313624231668 0.7034101228531112 0.28374424367983914 Q 0.6921355171439786 0.31255712493651155 0.6730313241368371 0.33385360238709555 Q 0.6539271311296956 0.3551500798376795 0.6279329013003063 0.36955652046601567 Q 0.6019386714709171 0.3839629610943519 0.572499423230404 0.3930452823600421 Q 0.5430601749898909 0.40212760362573235 0.5114286423059353 0.4065121725126173 Q 0.47979710962197974 0.4108967413995022 0.4497314943976259 0.4121494753671836 L 0.6802345444510052 0.6545534981135362 Q 0.6858718473055715 0.6601908009681027 0.688064131749014 0.6661412873145893 Q 0.6902564161924565 0.672091773661076 0.6908827831762971 0.6771027095318016 Q 0.6908827831762971 0.6858718473055715 0.6849322968298105 0.6918223336520583 Q 0.6789818104833237 0.6977728199985449 0.6695863057257132 0.6977728199985449 Q 0.6626962689034654 0.6977728199985449 0.6548666816054567 0.6946409850793414 Q 0.6470370943074478 0.6915091501601378 0.6395206905013594 0.682740012386368 L 0.38834752998123684 0.41465494330254643 L 0.15408627802481334 0.41465494330254643 L 0.15408627802481334 0.6501689292266514 Q 0.15408627802481334 0.6595644339842619 0.1531467275490523 0.6680203882661114 Q 0.1522071770732912 0.676476342547961 0.1497017091379284 0.6830531958782884 Q 0.14719624120256558 0.6896300492086157 0.1424984888237603 0.6937014346035804 Q 0.13780073644495502 0.6977728199985449 0.13028433263886655 0.6977728199985449 Q 0.11211969010748613 0.6977728199985449 0.10648238725291978 0.683679562862129 Q 0.10084508439835344 0.6695863057257132 0.10084508439835344 0.6501689292266514 L 0.10084508439835344 0.023175578402106045 Q 0.10084508439835344 0.013780073644495516 0.1011582678902738 0.009082321265690196 Q 0.10147145138219414 0.0043845688868848764 0.10335055233371626 0.0025054679353627707 Q 0.10522965328523837 0.0006263669838406649 0.10992740566404366 0.00031318349192033246 Q 0.11462515804284894 0 0.12402066280045951 0 L 0.30566708811426385 0 Q 0.36391921761144935 0 0.4168472277459889 0.0012527339676814409 Q 0.46977523788052844 0.0025054679353627707 0.5151868442089795 0.009082321265690196 Q 0.5605984505374306 0.015659174596017622 0.5975541025840322 0.029126064748592695 Q 0.6345097546306337 0.04259295490116788 0.660503984460023 0.06670808377903503 Q 0.6864982142894123 0.09082321265690219 0.7005914714258281 0.12715249771966297 Q 0.714684728562244 0.16348178278242387 0.714684728562244 0.21672297640888377 M 0.661443534935784 0.21672297640888377 Q 0.661443534935784 0.154712645008654 0.6385811400255983 0.11932291042165422 Q 0.6157187451154126 0.08393317583465443 0.5706203222788819 0.06670808377903503 Q 0.5255218994423512 0.04948299172341564 0.45912699915523647 0.04541160632845109 Q 0.39273209886812177 0.04134022093348644 0.30566708811426385 0.04134022093348644 L 0.15408627802481334 0.04134022093348644 L 0.15408627802481334 0.37331472236905994 L 0.38897389696507756 0.37331472236905994 Q 0.44346782455921885 0.37331472236905994 0.49295081628263454 0.3683037864983343 Q 0.5424338080060502 0.36329285062760863 0.5797026435445721 0.34669412555582996 Q 0.616971479083094 0.3300954004840513 0.6392075070094391 0.29940341827585676 Q 0.661443534935784 0.26871143606766223 0.661443534935784 0.21672297640888377 M 0.9370450078256941 0.6583117000165806 Q 0.9370450078256941 0.6664544708065097 0.9364186408418534 0.6736576911206777 Q 0.9357922738580127 0.6808609114348458 0.9335999894145702 0.6861850307974918 Q 0.9314077049711278 0.6915091501601378 0.9263967691004021 0.6946409850793414 Q 0.9213858332296765 0.6977728199985449 0.911990328472066 0.6977728199985449 Q 0.8944520529245262 0.6977728199985449 0.890693851021482 0.6871245812732529 Q 0.8869356491184377 0.676476342547961 0.8869356491184377 0.6583117000165806 L 0.8869356491184377 0.25618409639084816 Q 0.8869356491184377 0.24052492179483054 0.8913202180053227 0.22925031608569785 Q 0.8957047868922077 0.21797571037656516 0.9132430624397474 0.21797571037656516 Q 0.9289022370357649 0.21797571037656516 0.9329736224307296 0.22925031608569785 Q 0.9370450078256941 0.24052492179483054 0.9370450078256941 0.2549313624231668 L 0.9370450078256941 0.6583117000165806 M 0.8787928783285086 0.0764167720285659 Q 0.8787928783285086 0.06201033140022971 0.8881883830861191 0.05230164315069885 Q 0.8975838878437297 0.04259295490116788 0.911990328472066 0.04259295490116788 Q 0.9263967691004021 0.04259295490116788 0.9364186408418534 0.05230164315069885 Q 0.9464405125833046 0.06201033140022971 0.9464405125833046 0.0764167720285659 Q 0.9464405125833046 0.09082321265690219 0.9364186408418534 0.09959235043067205 Q 0.9263967691004021 0.10836148820444191 0.911990328472066 0.10836148820444191 Q 0.8975838878437297 0.10836148820444191 0.8881883830861191 0.09959235043067205 Q 0.8787928783285086 0.09082321265690219 0.8787928783285086 0.0764167720285659 M 1.6673889109839557 0.5668621203758376 Q 1.6673889109839557 0.5336646702322803 1.6439001490899292 0.5155000277008999 Q 1.620411387195903 0.4973353851695194 1.5818898176896996 0.48887943088766994 Q 1.5433682481834963 0.4804234766058204 1.494198439952001 0.47823119216237797 Q 1.4450286317205057 0.4760389077189355 1.3939797225374881 0.4744729902593337 Q 1.3429308133544708 0.472907072799732 1.2937610051229755 0.46883568740476733 Q 1.2445911968914802 0.4647643020098028 1.206069627385277 0.4519237788410684 Q 1.1675480578790736 0.4390832556723339 1.144059295985047 0.41496812679446676 Q 1.1205705340910206 0.39085299791659966 1.1205705340910206 0.34888640999927245 Q 1.1205705340910206 0.30566708811426385 1.144059295985047 0.2781069408252728 Q 1.1675480578790736 0.25054679353628184 1.2057564438933566 0.2342612519564235 Q 1.2439648299076396 0.21797571037656516 1.2921950876633737 0.21171204053815812 Q 1.340425345419108 0.20544837069975108 1.3905347041263643 0.20544837069975108 Q 1.4725887790094967 0.20544837069975108 1.5433682481834963 0.21891526085232627 Q 1.6141477173574958 0.2323821510049014 1.6749053147900441 0.2643268671807773 Q 1.6811689846284512 0.26745870209998085 1.6833612690718938 0.2721564544787861 Q 1.6855535535153363 0.27685420685759143 1.686179920499177 0.28186514272831703 Q 1.686179920499177 0.29000791351824623 1.6811689846284512 0.29627158335665327 Q 1.6761580487577257 0.3025352531950603 1.6698943789193186 0.3025352531950603 Q 1.6661361770162744 0.3025352531950603 1.664883443048593 0.3012825192273789 Q 1.611642249422133 0.2743487389222286 1.5443077986592573 0.25837638083429065 Q 1.4769733478963816 0.24240402274635264 1.3930401720617271 0.24240402274635264 Q 1.3504472171605593 0.24240402274635264 1.310359730194754 0.24772814210899863 Q 1.270272243228949 0.2530522614716446 1.2392670775288341 0.26526641765653836 Q 1.2082619118287192 0.2774805738414321 1.1894709023134982 0.29783750081625504 Q 1.170679892798277 0.3181944277910779 1.170679892798277 0.34888640999927245 Q 1.170679892798277 0.3802047591913077 1.1941686546923034 0.3971166677550067 Q 1.2176574165863299 0.4140285763187057 1.2561789860925332 0.4218581636167145 Q 1.2947005555987365 0.42968775091472333 1.3438703638302318 0.43156685186624544 Q 1.3930401720617271 0.43344595281776754 1.4440890812447447 0.43532505376928965 Q 1.495137990427762 0.4372041547208118 1.5443077986592573 0.4419019070996171 Q 1.5934776068907526 0.44659965947842234 1.631999176396956 0.46006654963099747 Q 1.6705207459031592 0.47353343978357265 1.6940095077971857 0.4989013026291212 Q 1.717498269691212 0.5242691654746697 1.717498269691212 0.5668621203758376 Q 1.717498269691212 0.6050705063901206 1.6936963243052654 0.6313779197114302 Q 1.6698943789193186 0.6576853330327398 1.6304332589373542 0.6736576911206777 Q 1.5909721389553897 0.6896300492086157 1.5392968627885317 0.6968332695227838 Q 1.4876215866216735 0.704036489836952 1.4325012920436915 0.704036489836952 Q 1.3986774749162936 0.704036489836952 1.3595295384262496 0.7024705723773502 Q 1.3203816019362054 0.7009046549177484 1.2812336654461614 0.6949541685712617 Q 1.2420857289561174 0.689003682224775 1.206069627385277 0.6767895260398813 Q 1.1700535258144362 0.6645753698549876 1.143119745509286 0.6432788924044036 Q 1.134350607735516 0.6363888555821559 1.134350607735516 0.6269933508245453 Q 1.134350607735516 0.6188505800346161 1.1390483601143215 0.6129000936881295 Q 1.1437461124931267 0.6069496073416427 1.1506361493153745 0.6069496073416427 Q 1.1556470851861 0.6069496073416427 1.158152553121463 0.6094550752770056 Q 1.1844599664427724 0.627619717808386 1.2148387651590467 0.6388943235175186 Q 1.245217563875321 0.6501689292266514 1.279041381002719 0.6564325990650584 Q 1.312865198130117 0.6626962689034654 1.3498208501767186 0.6648885533469079 Q 1.38677650222332 0.6670808377903503 1.4262376222052846 0.6670808377903503 Q 1.4732151459933374 0.6670808377903503 1.5167476513702662 0.6623830854115451 Q 1.5602801567471953 0.6576853330327398 1.593790790382673 0.6460975438316867 Q 1.6273014240181507 0.6345097546306337 1.647345167501053 0.6154055616234922 Q 1.6673889109839557 0.5963013686163507 1.6673889109839557 0.5668621203758376 M 2.1622188282181125 0.24240402274635264 Q 2.1039666987209267 0.24240402274635264 2.058868275884396 0.25242589448780395 Q 2.013769853047865 0.2624477662292552 1.9821383203639098 0.28468379415560024 Q 1.9505067876799542 0.30691982208194524 1.9329685121324145 0.3419963731770247 Q 1.9154302365848748 0.37707292427210415 1.9129247686495119 0.4278086499632012 L 2.385205474465403 0.4278086499632012 L 2.385205474465403 0.39398483283580316 Q 2.385205474465403 0.36266648364376797 2.37361768526435 0.33510633635477693 Q 2.362029896063297 0.30754618906578596 2.3357224827419873 0.2868760785990427 Q 2.3094150694206776 0.2662059681322994 2.2668221145195098 0.25430499543932605 Q 2.224229159618342 0.24240402274635264 2.1622188282181125 0.24240402274635264 M 2.1296477450583957 0.6670808377903503 Q 2.189152608523263 0.6670808377903503 2.2336246643759528 0.6595644339842619 Q 2.2780967202286426 0.6520480301781735 2.3100414364045188 0.6413997914528815 Q 2.3419861525803944 0.6307515527275895 2.3623430795552176 0.6194769470184568 Q 2.3827000065300403 0.6082023413093242 2.393974612239173 0.6006859375032357 Q 2.397732814142217 0.5994332035355543 2.3989855481098985 0.5994332035355543 Q 2.4058755849321463 0.5994332035355543 2.4118260712786332 0.6060100568658817 Q 2.41777655762512 0.612586910196209 2.41777655762512 0.6201033140022976 Q 2.41777655762512 0.6269933508245453 2.4115128877867127 0.6313779197114302 Q 2.4058755849321463 0.6370152225659965 2.3873977589088455 0.6489161952589699 Q 2.368919932885545 0.6608171679519433 2.334469748774306 0.6730313241368371 Q 2.3000195646630672 0.6852454803217308 2.2492838389719703 0.6946409850793414 Q 2.1985481132808733 0.704036489836952 2.129021378074555 0.704036489836952 Q 2.056362807949033 0.704036489836952 2.005627082257936 0.6858718473055715 Q 1.954891356566839 0.6677072047741911 1.9229466403909632 0.6351361216144744 Q 1.8910019242150873 0.6025650384547578 1.876595483586751 0.5568402486343864 Q 1.862189042958415 0.511115458814015 1.862189042958415 0.45662153121987364 Q 1.862189042958415 0.3839629610943519 1.8853646213605209 0.33573270333861766 Q 1.908540199762627 0.2875024455828834 1.9489408702203523 0.25837638083429065 Q 1.989341540678078 0.22925031608569785 2.0441486517641394 0.2173493433927245 Q 2.0989557628502014 0.20544837069975108 2.1622188282181125 0.20544837069975108 Q 2.292503160856979 0.20544837069975108 2.357332143684492 0.2552445459150871 Q 2.422161126512005 0.30504072113042313 2.422161126512005 0.3977430347388474 Q 2.422161126512005 0.4065121725126173 2.420908392544323 0.41716041123790926 Q 2.4196556585766418 0.4278086499632012 2.4174633741331997 0.43751733821273214 Q 2.415271089689757 0.44722602646226306 2.412452438262474 0.4538028797925905 Q 2.4096337868351907 0.46037973312291786 2.4071283188998276 0.46037973312291786 L 2.2229764256506606 0.46037973312291786 L 1.9122984016656712 0.4541160632845108 Q 1.9135511356333526 0.5123681927816963 1.9276443927697684 0.5527688632394218 Q 1.9417376499061842 0.5931695336971472 1.968984613703255 0.6185373965426958 Q 1.9962315775003256 0.6439052593882443 2.036319064466131 0.6554930485892974 Q 2.0764065514319356 0.6670808377903503 2.1296477450583957 0.6670808377903503 M 2.6307413321309596 0.6539271311296956 Q 2.6307413321309596 0.672091773661076 2.6254172127683137 0.6849322968298105 Q 2.6200930934056674 0.6977728199985449 2.6050602857934906 0.6977728199985449 Q 2.5868956432621104 0.6977728199985449 2.582197890883305 0.6849322968298105 Q 2.5775001385044995 0.672091773661076 2.5775001385044995 0.655179865097377 L 2.5775001385044995 0.023175578402106045 Q 2.5775001385044995 0.013780073644495516 2.57781332199642 0.009082321265690196 Q 2.57812650548834 0.0043845688868848764 2.5800056064398627 0.0025054679353627707 Q 2.5818847073913846 0.0006263669838406649 2.58658245977019 0.00031318349192033246 Q 2.591280212148995 0 2.600675716906606 0 L 3.213262627102815 0 Q 3.221405397892744 0 3.2286086182069123 0.00031318349192033246 Q 3.23581183852108 0.0006263669838406649 3.241135957883726 0.002818651427283103 Q 3.2464600772463723 0.005010935870725652 3.2495919121655756 0.009395504757610529 Q 3.2527237470847794 0.013780073644495516 3.2527237470847794 0.021922844434424604 Q 3.2527237470847794 0.036329285062760897 3.242075508359487 0.03883475299812367 Q 3.2314272696341955 0.04134022093348644 3.213262627102815 0.04134022093348644 L 2.6307413321309596 0.04134022093348644 L 2.6307413321309596 0.32571083159716635 L 3.123692148413594 0.32571083159716635 Q 3.1418567909449746 0.32571083159716635 3.1534445801460276 0.3282162995325292 Q 3.1650323693470805 0.330721767467892 3.1650323693470805 0.34512820809622824 Q 3.1650323693470805 0.3532709788861574 3.1615873509359567 0.3576555477730423 Q 3.158142332524833 0.36204011665992725 3.152505029670267 0.3642324011033697 Q 3.1468677268157004 0.3664246855468122 3.1393513230096115 0.3667378690387325 Q 3.1318349192035235 0.3670510525306529 3.123692148413594 0.3670510525306529 L 2.6307413321309596 0.3670510525306529 L 2.6307413321309596 0.6539271311296956 M 3.7995421239777145 0.6094550752770056 Q 3.7863884173170597 0.6251142498730231 3.766031490342237 0.6417129749448018 Q 3.745674563367414 0.6583117000165806 3.71592213163498 0.672091773661076 Q 3.686169699902547 0.6858718473055715 3.646082212936742 0.6949541685712617 Q 3.6059947259709366 0.704036489836952 3.5533798993283177 0.704036489836952 Q 3.486358632057362 0.704036489836952 3.439067924777389 0.6911959666682175 Q 3.391777217497416 0.6783554434994831 3.3617116022730618 0.6511084797024124 Q 3.331645987048708 0.6238615159053418 3.3178659134042126 0.5815817444960942 Q 3.304085839759717 0.5393019730868467 3.304085839759717 0.4797971096219797 L 3.304085839759717 0.2630741332130959 Q 3.304085839759717 0.2549313624231668 3.3050253902354783 0.24678859163323758 Q 3.305964940711239 0.23864582084330843 3.308470408646602 0.2323821510049014 Q 3.310975876581965 0.22611848116649436 3.3159868124526906 0.22204709577152976 Q 3.3209977483234163 0.21797571037656516 3.3291405191133454 0.21797571037656516 Q 3.338536023870956 0.21797571037656516 3.3435469597416816 0.22204709577152976 Q 3.348557895612407 0.22611848116649436 3.3507501800558495 0.2323821510049014 Q 3.352942464499292 0.23864582084330843 3.3535688314831327 0.24678859163323758 Q 3.3541951984669733 0.2549313624231668 3.3541951984669733 0.2630741332130959 L 3.3541951984669733 0.4797971096219797 Q 3.3541951984669733 0.5324119362645989 3.3629643362407435 0.568114854343519 Q 3.3717334740145133 0.6038177724224392 3.393969501940858 0.6257406168568639 Q 3.416205529867203 0.6476634612912885 3.4547270993734065 0.6573721495408195 Q 3.49324866887961 0.6670808377903503 3.5533798993283177 0.6670808377903503 Q 3.597225588197167 0.6670808377903503 3.634494423735689 0.6595644339842619 Q 3.671763259274211 0.6520480301781735 3.7024552414824052 0.6404602409771204 Q 3.7331472236905996 0.6288724517760674 3.7575755360603873 0.6144660111477311 Q 3.7820038484301746 0.600059570519395 3.800168490961555 0.5862794968748994 L 3.800168490961555 0.2630741332130959 Q 3.800168490961555 0.2549313624231668 3.800794857945396 0.24678859163323758 Q 3.8014212249292365 0.23864582084330843 3.803613509372679 0.2323821510049014 Q 3.8058057938161216 0.22611848116649436 3.810503546194927 0.22204709577152976 Q 3.815201298573732 0.21797571037656516 3.823344069363661 0.21797571037656516 Q 3.8327395741212715 0.21797571037656516 3.838063693483918 0.22204709577152976 Q 3.8433878128465637 0.22611848116649436 3.846206464273847 0.2323821510049014 Q 3.84902511570113 0.23864582084330843 3.849651482684971 0.24678859163323758 Q 3.8502778496688115 0.2549313624231668 3.8502778496688115 0.2630741332130959 L 3.8502778496688115 0.6539271311296956 Q 3.8502778496688115 0.6620699019196248 3.8493382991930503 0.6698994892176335 Q 3.8483987487172895 0.6777290765156424 3.845893280781927 0.6839927463540494 Q 3.8433878128465637 0.6902564161924565 3.8386900604677585 0.6940146180955007 Q 3.8339923080889533 0.6977728199985449 3.826475904282865 0.6977728199985449 Q 3.808937628735325 0.6977728199985449 3.8042398763565197 0.6861850307974918 Q 3.7995421239777145 0.6745972415964389 3.7995421239777145 0.6595644339842619 L 3.7995421239777145 0.6539271311296956 L 3.7995421239777145 0.6094550752770056 M 4.6044236982130196 0.6526743971620141 Q 4.6044236982130196 0.6608171679519433 4.603170964245338 0.6689599387418725 Q 4.601918230277657 0.6771027095318016 4.599099578850374 0.6833663793702087 Q 4.5962809274230905 0.6896300492086157 4.591269991552365 0.6937014346035804 Q 4.586259055681639 0.6977728199985449 4.578742651875551 0.6977728199985449 Q 4.5693471471179405 0.6977728199985449 4.564649394739135 0.6937014346035804 Q 4.55995164236033 0.6896300492086157 4.557446174424967 0.6833663793702087 Q 4.554940706489604 0.6771027095318016 4.554627522997683 0.6689599387418725 Q 4.554314339505764 0.6608171679519433 4.554314339505764 0.6526743971620141 L 4.554314339505764 0.43595142075313037 Q 4.554314339505764 0.3870947960135554 4.547111119191595 0.35076551095079456 Q 4.539907898877427 0.3144362258880337 4.518924604918763 0.29032109701016656 Q 4.4979413109601 0.2662059681322994 4.460672475421578 0.25430499543932605 Q 4.423403639883056 0.24240402274635264 4.363272409434348 0.24240402274635264 Q 4.326316757387747 0.24240402274635264 4.28497653645426 0.24835450909283935 Q 4.2436363155207735 0.25430499543932605 4.206054296490332 0.2690246195595826 Q 4.168472277459889 0.28374424367983914 4.139659396203217 0.3081725560496266 Q 4.1108465149465445 0.3326008684194141 4.099571909237412 0.36955652046601567 L 4.099571909237412 0.6526743971620141 Q 4.099571909237412 0.6608171679519433 4.098945542253571 0.6689599387418725 Q 4.09831917526973 0.6771027095318016 4.095813707334368 0.6833663793702087 Q 4.093308239399005 0.6896300492086157 4.088610487020199 0.6937014346035804 Q 4.083912734641395 0.6977728199985449 4.076396330835306 0.6977728199985449 Q 4.0676271930615355 0.6977728199985449 4.06230307369889 0.6937014346035804 Q 4.056978954336244 0.6896300492086157 4.054160302908961 0.6833663793702087 Q 4.051341651481677 0.6771027095318016 4.050402101005917 0.6689599387418725 Q 4.049462550530156 0.6608171679519433 4.049462550530156 0.6526743971620141 L 4.049462550530156 0.24678859163323758 Q 4.049462550530156 0.2361403529079456 4.05384711941704 0.2270580316422554 Q 4.058231688303925 0.21797571037656516 4.075769963851465 0.21797571037656516 Q 4.091429138447483 0.21797571037656516 4.095500523842447 0.2264316646584147 Q 4.099571909237412 0.23488761894026422 4.099571909237412 0.24678859163323758 L 4.099571909237412 0.32571083159716635 Q 4.117110184784951 0.2856233446313613 4.148428533976987 0.26150821575349414 Q 4.179746883169022 0.23739308687562705 4.217015718707544 0.2251789306907333 Q 4.254284554246066 0.21296477450583956 4.292806123752269 0.2092065726027953 Q 4.331327693258473 0.20544837069975108 4.363272409434348 0.20544837069975108 Q 4.430920043689144 0.20544837069975108 4.4769580170014365 0.2170361599008041 Q 4.522995990313728 0.22862394910185718 4.5514956880784805 0.25555772940700744 Q 4.579995385843232 0.28249150971215775 4.592209542028126 0.3266503820729274 Q 4.6044236982130196 0.3708092544336971 4.6044236982130196 0.43595142075313037 L 4.6044236982130196 0.6526743971620141 M 5.051023357691442 0.704036489836952 Q 4.994650329145778 0.704036489836952 4.944227786946602 0.6924487006358989 Q 4.893805244747425 0.6808609114348458 4.855910042225062 0.6526743971620141 Q 4.8180148397027 0.6244878828891824 4.795778811776355 0.5775103591011296 Q 4.77354278385001 0.5305328353130767 4.77354278385001 0.45975336613907714 Q 4.77354278385001 0.3896002639489182 4.792020609873311 0.34105682270126364 Q 4.810498435896611 0.292513381453609 4.845888170483611 0.2624477662292552 Q 4.881277905070611 0.2323821510049014 4.932953181237469 0.21891526085232627 Q 4.984628457404328 0.20544837069975108 5.051023357691442 0.20544837069975108 Q 5.1174182579785565 0.20544837069975108 5.16502214875045 0.2132779579977599 Q 5.212626039522344 0.2211075452957687 5.245510306173981 0.23300851798874211 Q 5.278394572825618 0.24490949068171547 5.2993778667842815 0.2590027478181313 Q 5.320361160742944 0.27309600495454717 5.332888500419759 0.2849969776475206 L 5.332888500419759 0.044472055852689985 Q 5.332888500419759 0.036329285062760897 5.333201683911679 0.028186514272831698 Q 5.3335148674036 0.0200437434829025 5.336020335338962 0.013780073644495516 Q 5.338525803274325 0.007516403806088423 5.343223555653131 0.0037582019030442115 Q 5.347921308031935 0 5.357316812789547 0 Q 5.366712317547157 0 5.3717232534178825 0.003445018411123879 Q 5.376734189288609 0.006890036822247758 5.379239657223971 0.012527339676814075 Q 5.381745125159334 0.018164642531380393 5.382371492143174 0.02599422982938926 Q 5.382997859127015 0.033823817127398015 5.382997859127015 0.043219321885008544 L 5.382997859127015 0.6639490028711469 Q 5.382997859127015 0.6839927463540494 5.375168271829007 0.6908827831762971 Q 5.367338684530997 0.6977728199985449 5.358569546757228 0.6977728199985449 Q 5.347921308031935 0.6977728199985449 5.3404049042258475 0.6915091501601378 Q 5.332888500419759 0.6852454803217308 5.332888500419759 0.6652017368388282 L 5.332888500419759 0.5781367260849704 Q 5.325998463597511 0.6050705063901206 5.308460188049971 0.6248010663811028 Q 5.290921912502432 0.644531626372085 5.266806783624564 0.6583117000165806 Q 5.2426916547466975 0.672091773661076 5.213878773490025 0.6811740949267663 Q 5.185065892233353 0.6902564161924565 5.15593982748476 0.6952673520631821 Q 5.126813762736167 0.7002782879339077 5.0995667989390965 0.7021573888854298 Q 5.072319835142026 0.704036489836952 5.051023357691442 0.704036489836952 M 5.051023357691442 0.6670808377903503 Q 5.088605376721884 0.6664544708065097 5.1330774325745745 0.6611303514438637 Q 5.177549488427264 0.6558062320812177 5.21826334237691 0.6420261584367222 Q 5.258977196326556 0.6282460847922267 5.290295545518591 0.6038177724224392 Q 5.321613894710627 0.5793894600526517 5.332888500419759 0.5399283400706874 L 5.332888500419759 0.3144362258880337 Q 5.318482059791423 0.303161620178901 5.296246031865078 0.2906342805020869 Q 5.2740100039387325 0.2781069408252728 5.2404993703032545 0.2671455186080605 Q 5.206988736667777 0.25618409639084816 5.160324396371645 0.2492940595686004 Q 5.1136600560755125 0.24240402274635264 5.051023357691442 0.24240402274635264 Q 4.990892127242734 0.24240402274635264 4.947985988849646 0.2549313624231668 Q 4.905079850456557 0.26745870209998085 4.877206519675647 0.2940792989132108 Q 4.849333188894735 0.32069989572644075 4.836492665726 0.36172693316800686 Q 4.8236521425572665 0.402753970609573 4.8236521425572665 0.45975336613907714 Q 4.8236521425572665 0.5192582296039441 4.8415036015967265 0.5590325330778289 Q 4.859355060636187 0.5988068365517136 4.8900470428443805 0.6226087819376603 Q 4.920739025052575 0.6464107273236072 4.962392429477982 0.6567457825569788 Q 5.004045833903389 0.6670808377903503 5.051023357691442 0.6670808377903503" fill="#ffffff" fill-rule="nonzero"></path></g><g></g></g><defs><clipPath id="SvgjsClipPath44242"><path d=" M -0.03470112055997099 -5.114519289172526 h 5.55199245067763 v 4.864519289172526 h -5.55199245067763 Z"></path></clipPath><clipPath id="SvgjsClipPath44240311c681d-eef2-4193-9fa2-d787c2cd5e66"><path d=" M -0.03470112055997099 -5.114519289172526 L 5.517291330117659 -5.114519289172526 L 5.517291330117659 -0.25 L -0.03470112055997099 -0.25 Z"></path></clipPath></defs></svg>